<svg version="1.1" id="Layer_1" xmlns="http://www.w3.org/2000/svg" xmlns:xlink="http://www.w3.org/1999/xlink" x="0px" y="0px"
	 width="100%" viewBox="0 0 1024 1024" enable-background="new 0 0 1024 1024" xml:space="preserve">
<path fill="#000000" opacity="1.000000" stroke="none" 
	d="
M1.000000,716.000000 
	C1.000000,600.312439 1.000000,484.624878 1.238260,368.621643 
	C2.252254,368.495667 3.213938,369.080109 3.775685,368.815491 
	C11.530800,365.162537 19.176258,361.345276 21.562349,351.988434 
	C22.189939,349.527344 23.374014,347.301849 25.057966,345.422760 
	C31.668917,338.045807 35.499912,329.767212 33.924023,319.571808 
	C33.672684,317.945709 33.899834,316.245056 33.912025,314.578918 
	C34.021400,299.633514 36.270348,285.425232 46.582764,273.540985 
	C50.305698,269.250610 52.956573,264.107117 53.558929,258.276825 
	C54.294319,251.158768 55.476715,244.042755 54.930103,236.859558 
	C53.886433,223.144485 55.052971,209.703033 57.810661,196.177139 
	C62.546402,172.949295 69.753860,151.207886 86.895699,133.756058 
	C98.575836,121.864693 110.510925,110.767380 127.361153,106.607407 
	C150.091843,100.995682 170.490463,89.791130 190.416290,78.157394 
	C209.446854,67.046333 228.369019,57.529751 251.236343,58.907990 
	C280.178619,60.652378 308.729126,56.328957 337.277344,52.418007 
	C343.614441,51.549862 348.976105,48.845284 352.941956,43.586498 
	C357.693359,37.286095 363.106628,31.812971 370.504028,28.410305 
	C374.703094,26.478811 378.483917,23.613400 382.380066,21.057211 
	C384.748566,19.503271 388.877899,4.300657 387.756836,1.638073 
	C387.642792,1.367185 387.258728,1.209969 387.000000,1.000000 
	C504.354218,1.000000 621.708435,1.000000 739.322083,1.163726 
	C739.168762,1.830255 738.395996,2.334204 738.397583,2.835674 
	C738.419922,9.867624 744.453186,18.309071 751.147522,20.884901 
	C755.677063,22.627775 760.225952,24.350531 762.601074,29.118570 
	C766.814575,37.577095 773.193359,44.471478 779.782654,50.942371 
	C792.925232,63.848793 808.016174,74.749931 819.190063,89.704384 
	C820.925720,92.027313 823.563477,93.844734 826.099060,95.373299 
	C839.660767,103.548752 846.421509,115.981400 849.060120,131.140091 
	C850.056335,136.863098 849.941528,142.909836 852.649963,148.178894 
	C862.892883,168.105667 875.159607,186.696442 891.762756,201.903625 
	C900.069702,209.512207 906.687500,218.281921 913.670776,226.975342 
	C923.971008,239.797897 934.163696,252.619354 943.746521,266.017303 
	C951.617004,277.021088 958.383179,288.163818 961.250977,301.476501 
	C963.845459,313.520386 966.378906,325.594543 970.405884,337.264679 
	C973.238220,345.472778 976.189026,354.036957 982.815857,359.768555 
	C991.444214,367.231262 997.387085,376.884918 1005.348267,384.889771 
	C1012.790588,392.373016 1018.517883,401.561859 1025.000000,410.000000 
	C1025.000000,469.020905 1025.000000,528.041809 1024.657349,587.669556 
	C1023.089600,588.775757 1021.902954,589.426086 1020.633118,589.749695 
	C1012.961060,591.704651 1002.892029,602.189819 1003.641296,609.891479 
	C1004.754089,621.330017 1003.705383,633.247498 1009.002197,644.067261 
	C1011.005371,648.159058 1012.087341,652.445435 1011.919312,657.041504 
	C1011.813171,659.940857 1012.327637,662.836975 1014.519104,664.855042 
	C1018.934631,668.921021 1022.699524,673.399475 1025.000000,679.000000 
	C1025.000000,692.020874 1025.000000,705.041809 1024.747070,718.557251 
	C1017.614929,727.570923 1011.116150,736.373840 1006.409180,746.299316 
	C1003.492126,752.450317 999.807251,758.344604 994.471924,762.087036 
	C988.309631,766.409485 984.511230,772.623291 981.073792,778.353882 
	C975.310242,787.962463 968.515991,797.291870 965.421021,808.375549 
	C963.778809,814.256348 960.413696,819.170166 957.202332,824.263672 
	C950.760254,834.481628 942.404236,842.676392 932.220581,848.963196 
	C924.760437,853.568665 918.211304,859.559814 909.610046,862.465088 
	C892.826416,868.134216 878.976501,878.368774 867.922058,892.070740 
	C863.403564,897.671326 858.754272,903.048279 853.535828,907.960022 
	C849.776794,911.498169 845.411499,913.791992 840.141418,913.898315 
	C834.089111,914.020325 829.811646,916.857605 826.651367,921.939026 
	C822.475098,928.653992 816.406616,932.656067 808.541626,934.045837 
	C797.202515,936.049500 785.843689,937.666016 774.283020,937.200317 
	C767.587769,936.930603 760.970642,937.628540 754.416626,938.943726 
	C734.462219,942.947693 715.192749,949.416870 695.740784,955.236450 
	C689.428772,957.124817 683.743347,960.144592 678.368225,963.866394 
	C664.130066,973.725098 649.960083,983.685669 635.596313,993.358215 
	C628.632202,998.047791 620.843567,1001.295288 612.546143,1002.575562 
	C597.692871,1004.867432 582.772461,1006.126038 567.809570,1003.037048 
	C562.249451,1001.889221 556.540039,1001.691406 550.880615,1001.893311 
	C531.779663,1002.574463 513.692749,997.164246 495.329346,993.163208 
	C482.150085,990.291748 470.719635,982.910828 457.850281,979.493713 
	C443.899292,975.789307 429.442017,973.752319 417.015533,965.550171 
	C415.412384,964.492065 413.269379,964.176392 411.329010,963.717041 
	C400.135162,961.067261 388.883606,958.734253 377.374146,957.924988 
	C371.696869,957.525757 366.096649,956.617065 360.744202,954.673035 
	C348.965607,950.394775 336.796539,947.613403 324.619537,944.793030 
	C308.832581,941.136719 293.507568,936.521057 279.908295,926.986145 
	C264.104004,915.905212 247.758728,905.594177 231.615814,894.998413 
	C221.222977,888.176880 212.169983,879.752319 204.708099,869.979065 
	C195.919601,858.468262 185.390823,849.678101 171.453476,845.869751 
	C162.913864,843.536316 154.425629,841.285217 146.377136,837.569092 
	C141.023727,835.097473 135.323318,833.939697 129.535019,833.093384 
	C104.662010,829.456726 88.196327,814.104614 76.358620,793.404785 
	C69.773796,781.890381 64.780090,769.423645 60.634911,756.716614 
	C58.605396,750.495117 55.621906,744.739258 51.497097,739.612061 
	C50.234230,738.042297 48.992294,736.198547 46.989666,735.812378 
	C39.569164,734.381897 35.841183,729.459717 33.186092,722.830200 
	C31.602034,718.874756 28.987314,713.486816 24.711123,713.813599 
	C16.828712,714.416077 8.974648,715.897888 1.000000,716.000000 
M365.849274,548.517761 
	C400.614471,565.732971 435.404144,582.899231 470.105682,600.241760 
	C473.444946,601.910645 475.452789,601.376099 477.905640,598.854797 
	C496.952179,579.276672 516.098389,559.795471 535.224609,540.294800 
	C539.847961,535.580933 544.511841,530.906799 549.223083,526.147827 
	C547.737549,523.776733 545.642212,523.078064 543.721558,522.193481 
	C516.051636,509.449432 488.368042,496.734863 460.696808,483.993652 
	C414.574615,462.756744 368.418549,441.592407 322.393768,420.146362 
	C316.897461,417.585266 313.162170,417.984436 308.754517,422.179443 
	C287.522552,442.387115 266.032867,462.323914 244.662781,482.386871 
	C243.511673,483.467529 241.856857,484.348724 242.282684,487.602814 
	C282.852753,507.599976 324.017731,527.890381 365.849274,548.517761 
M512.726868,647.162231 
	C525.164673,639.411438 537.556824,631.585632 550.070557,623.959473 
	C553.428345,621.913208 554.801880,619.442383 554.773499,615.446106 
	C554.610474,592.458313 554.701111,569.468750 554.658203,546.479858 
	C554.655457,545.000671 555.179321,543.300781 553.634216,541.647034 
	C551.638428,544.571045 549.850708,547.161011 548.092407,549.770752 
	C530.505859,575.873230 512.879700,601.949341 495.393341,628.118835 
	C493.009705,631.686035 490.938660,632.388123 486.873444,630.362427 
	C442.758972,608.380188 398.541382,586.604858 354.347473,564.782104 
	C342.701111,559.031189 331.061371,553.266113 319.373169,547.601196 
	C314.989655,545.476624 313.609924,546.348206 313.328247,551.069153 
	C313.248962,552.397766 313.280792,553.733765 313.281158,555.066345 
	C313.293030,596.713074 313.897308,638.372986 312.966705,679.998596 
	C312.682495,692.711121 316.265472,698.831604 328.183167,703.802551 
	C366.434235,719.757385 404.070923,737.184570 441.962921,754.002563 
	C444.118652,754.959412 446.260742,756.331909 448.911224,755.963928 
	C448.930084,753.217041 447.203461,751.661316 446.155853,749.843567 
	C432.306793,725.814209 439.441040,693.792175 462.578766,678.578918 
	C478.853851,667.877991 495.578094,657.860168 512.726868,647.162231 
M788.971191,486.399292 
	C799.991272,479.637085 811.011414,472.874878 821.894714,466.196655 
	C821.016235,462.844025 818.810364,461.897156 816.732361,460.928864 
	C805.815735,455.842072 794.636536,453.227478 782.374207,455.290161 
	C750.433289,460.663055 716.692932,487.550079 722.479004,529.489502 
	C723.016052,533.382202 721.559326,535.283447 718.605225,537.137329 
	C664.843018,570.876770 611.131714,604.697327 557.370605,638.438599 
	C531.265625,654.822571 505.003235,670.956848 478.969055,687.451904 
	C468.071442,694.356689 462.538239,708.889465 464.735809,721.440247 
	C468.454102,742.676453 493.518951,758.610596 516.422058,742.490479 
	C555.934692,714.679749 595.661133,687.172729 635.271790,659.501038 
	C673.380249,632.878723 711.486877,606.253540 749.501465,579.497681 
	C753.655273,576.574036 756.833740,576.010742 761.563965,578.851135 
	C785.987732,593.517212 810.297363,591.856201 833.368591,576.010864 
	C849.512329,564.923340 859.096741,549.226318 860.726379,529.335388 
	C861.279297,522.586426 860.155762,521.959351 854.256958,524.959656 
	C845.349731,529.490051 836.478271,534.091125 827.609802,538.697266 
	C815.826721,544.817322 804.166382,545.070618 792.288330,538.691223 
	C769.895081,526.664246 771.188171,494.471985 788.971191,486.399292 
M679.097717,361.575500 
	C680.727844,360.547241 683.270203,360.197296 683.239014,357.751953 
	C683.204651,355.046631 680.459900,354.797729 678.656189,353.762115 
	C678.369507,353.597534 678.049072,353.490814 677.741333,353.364166 
	C639.107971,337.468811 600.467285,321.591095 561.852722,305.650360 
	C558.395752,304.223236 555.296082,304.294495 551.793823,305.773865 
	C515.152893,321.251648 478.453827,336.592010 441.773987,351.977905 
	C438.011688,353.556091 434.269684,355.182800 430.467529,356.808655 
	C431.525330,358.882202 433.150421,359.093201 434.461609,359.671112 
	C476.049164,377.999115 517.200073,397.279816 558.386353,416.482147 
	C560.750183,417.584167 562.696838,417.463928 564.987183,416.361298 
	C602.785095,398.163757 640.612305,380.027191 679.097717,361.575500 
M442.522614,323.872467 
	C476.772339,306.763763 510.999695,289.609894 545.304871,272.613098 
	C548.913513,270.825195 549.755615,268.369598 549.742920,264.666626 
	C549.632507,232.361206 549.668518,200.055252 549.655884,167.749466 
	C549.655457,166.584702 549.731018,165.398926 549.546265,164.259430 
	C549.118347,161.620865 547.592773,160.874298 545.271423,162.209839 
	C544.127258,162.868103 543.111633,163.762009 542.078735,164.599747 
	C501.865326,197.215225 461.661987,229.843170 421.445038,262.454285 
	C402.047546,278.183319 382.603973,293.855560 363.231079,309.614807 
	C358.818909,313.203979 358.938690,313.860809 363.450226,317.394928 
	C374.194946,325.811890 384.988983,334.167633 395.632111,342.711243 
	C398.445801,344.969879 400.761566,345.481659 404.138885,343.679291 
	C416.620422,337.018341 429.270264,330.672852 442.522614,323.872467 
M302.083069,285.449463 
	C276.325806,265.677185 250.543610,245.937256 224.844330,226.089905 
	C221.782166,223.725006 218.936356,223.110825 215.178680,224.297958 
	C200.266113,229.009232 185.267883,233.449066 170.309219,238.015213 
	C168.781586,238.481522 166.937408,238.534790 166.214127,240.754303 
	C167.250046,243.086441 169.185760,244.945343 170.962173,246.884995 
	C178.836563,255.483170 186.774567,264.023041 194.666672,272.605042 
	C214.957031,294.669067 235.216751,316.761322 255.524139,338.809631 
	C271.659973,356.328766 287.898804,373.753357 303.961243,391.339233 
	C306.522156,394.143005 308.472137,394.453522 311.518280,392.117889 
	C314.397217,389.910522 317.708221,388.221558 320.952515,386.543060 
	C341.065582,376.136963 361.223053,365.816681 381.332336,355.403351 
	C383.021576,354.528595 385.176697,354.065735 386.240845,350.802643 
	C358.543121,329.304535 330.588013,307.606659 302.083069,285.449463 
M642.146423,779.786255 
	C608.131165,796.663147 574.105408,813.519104 540.122498,830.460938 
	C537.680481,831.678345 535.605469,831.901001 533.057495,830.783875 
	C515.062012,822.893677 497.029022,815.088440 478.980927,807.318848 
	C433.861877,787.895508 388.732300,768.496704 343.599030,749.106384 
	C323.862213,740.627014 304.124786,732.148376 284.340302,723.781372 
	C281.032532,722.382507 279.428650,720.536682 279.486755,716.703735 
	C279.600250,709.216736 279.092285,701.722717 278.996002,694.229553 
	C278.884583,685.558044 278.903870,685.679626 270.875214,682.213928 
	C236.321701,667.298401 201.842773,652.209045 167.228516,637.436401 
	C161.654877,635.057678 159.657867,631.843445 159.686859,625.747925 
	C159.888123,583.426208 159.721268,541.102722 159.672073,498.779846 
	C159.666275,493.781097 159.723846,488.781128 159.628479,483.784058 
	C159.558563,480.120453 151.624939,474.000427 148.176010,474.829651 
	C147.054260,475.099365 146.488754,475.886780 146.418915,476.968445 
	C146.322418,478.462585 146.310608,479.963989 146.310501,481.462280 
	C146.306686,532.283142 146.412186,583.104553 146.172989,633.924255 
	C146.144440,639.991455 147.946426,643.129333 153.617615,645.531616 
	C187.965988,660.081421 222.110199,675.112915 256.448700,689.686462 
	C261.958282,692.024719 264.643127,694.882812 264.258911,701.122925 
	C263.788849,708.756348 264.507965,716.458923 264.142822,724.104309 
	C263.904968,729.084351 265.825317,731.651062 270.308716,733.489258 
	C283.403564,738.858398 296.363007,744.558472 309.365967,750.151062 
	C383.563538,782.063599 457.768280,813.959717 531.923767,845.969788 
	C535.476685,847.503540 538.350830,847.488586 541.801941,845.759644 
	C581.564758,825.839539 621.391113,806.046326 661.197998,786.214294 
	C670.144470,781.757080 679.095886,777.309265 688.008545,772.785217 
	C689.507263,772.024475 691.889832,771.506714 690.677551,768.912292 
	C688.900818,765.109924 678.476379,761.852112 674.622131,763.754700 
	C664.019653,768.988281 653.407349,774.201782 642.146423,779.786255 
M348.799316,285.863281 
	C357.222992,279.326385 365.651672,272.795929 374.069458,266.251434 
	C407.869507,239.973251 441.654236,213.675354 475.467926,187.414734 
	C501.917236,166.873520 528.431335,146.415497 554.830994,125.810768 
	C558.152344,123.218491 561.172485,122.438477 565.352722,123.724586 
	C592.875916,132.192368 620.544861,140.190613 648.020081,148.808197 
	C662.505676,153.351578 660.992493,149.911163 661.082642,166.301682 
	C661.271484,200.627975 661.179810,234.956573 661.008789,269.283264 
	C660.984985,274.057465 662.508057,276.721252 666.938293,278.896454 
	C716.717529,303.337616 766.365601,328.045746 816.136047,352.505035 
	C819.814453,354.312744 821.732056,356.832886 823.054993,360.411530 
	C827.326721,371.967133 831.697327,383.486450 836.096436,394.994263 
	C836.706970,396.591431 836.839844,398.610748 838.959595,399.410583 
	C840.400024,397.601013 839.814636,395.525024 839.816956,393.631470 
	C839.832397,381.133850 839.166321,368.603516 839.877869,356.149811 
	C840.359070,347.726379 837.464539,343.721863 829.759155,340.054718 
	C780.283813,316.508301 731.145447,292.254364 681.823425,268.383545 
	C677.950378,266.509064 676.529846,264.210419 676.561890,259.958374 
	C676.724976,238.296692 676.659363,216.632782 676.581482,194.969986 
	C676.525757,179.474930 676.233826,163.980347 676.243164,148.485672 
	C676.245911,143.850525 674.811951,141.205643 669.929749,139.997467 
	C661.053650,137.800919 652.342773,134.935516 643.565674,132.340088 
	C617.075623,124.506866 590.561951,116.751640 564.121155,108.755508 
	C559.500305,107.358109 555.929932,107.946915 552.164734,110.962654 
	C543.844971,117.626297 535.203125,123.885857 526.784241,130.428024 
	C475.877167,169.986801 424.987427,209.567841 374.112579,249.168045 
	C362.938263,257.865997 351.835327,266.655884 340.733032,275.445770 
	C339.234009,276.632568 337.161316,277.630585 337.924561,280.197266 
	C338.736664,282.928253 345.061981,286.601776 348.799316,285.863281 
M639.609497,244.500153 
	C639.614624,221.846512 639.537720,199.192322 639.695740,176.539734 
	C639.726379,172.146439 638.132935,169.857071 633.913940,168.649033 
	C612.806030,162.605209 591.765625,156.326126 570.663452,150.261902 
	C562.575745,147.937714 561.360718,148.990677 561.358398,157.522491 
	C561.347473,197.499786 561.459656,237.477692 561.228577,277.453644 
	C561.196960,282.927032 563.160706,285.452576 568.095154,287.290039 
	C588.995911,295.073181 609.777954,303.175476 630.591248,311.192596 
	C637.704224,313.932465 639.624390,312.673706 639.630493,304.966370 
	C639.646179,285.144318 639.618958,265.322235 639.609497,244.500153 
M473.194366,471.160950 
	C500.277283,483.634216 527.360168,496.107452 554.475464,508.595642 
	C555.949219,505.814667 555.651855,503.949860 555.653076,502.152435 
	C555.668335,479.820068 555.522522,457.486328 555.755249,435.156464 
	C555.806091,430.275757 554.185181,427.681396 549.744568,425.654327 
	C513.680969,409.191742 477.726288,392.490845 441.711334,375.921326 
	C435.428619,373.030853 429.018829,370.416626 422.742615,367.707123 
	C420.968933,369.847107 421.376587,371.748779 421.374969,373.516327 
	C421.354218,396.348633 421.464386,419.181702 421.291260,442.012695 
	C421.259277,446.226929 422.948730,448.210938 426.619629,449.845215 
	C441.986908,456.686615 457.230469,463.805878 473.194366,471.160950 
M621.293518,402.930420 
	C605.202393,410.554321 589.155212,418.273407 572.985962,425.727875 
	C569.432617,427.366089 568.097656,429.488495 568.128357,433.365540 
	C568.312561,456.674408 568.280884,479.984955 568.362000,503.294800 
	C568.367432,504.872681 567.828552,506.698090 569.586060,507.813263 
	C570.875549,508.077759 571.866150,507.410431 572.913635,506.912567 
	C611.393860,488.623993 649.849854,470.284027 688.397522,452.138702 
	C692.449219,450.231506 694.086365,447.849640 694.049500,443.384979 
	C693.868347,421.408447 693.966370,399.429749 693.909851,377.451965 
	C693.890076,369.761780 692.255737,368.724243 685.372620,372.028473 
	C664.221069,382.182159 643.096008,392.391144 621.293518,402.930420 
M758.999573,439.615509 
	C699.273438,467.151855 639.546936,494.687378 579.824463,522.231628 
	C578.797363,522.705383 577.570496,522.990845 577.257324,524.394714 
	C577.735291,526.130127 579.220886,527.009094 580.492065,528.035278 
	C596.441284,540.910950 611.633789,554.664612 626.875244,568.348938 
	C630.506592,571.609253 633.100891,572.026062 637.244263,569.339600 
	C657.089478,556.472900 677.063599,543.800903 697.147888,531.310364 
	C701.135620,528.830383 702.758789,526.127319 702.804810,521.337158 
	C702.952759,505.943756 706.007507,491.024658 714.838745,478.180206 
	C735.154602,448.632111 763.723999,435.200897 799.298828,437.939026 
	C820.660889,439.583160 837.621765,450.315399 850.799988,467.129761 
	C853.383606,470.426270 853.677307,472.846802 849.412109,474.885864 
	C846.870972,476.100677 844.655273,477.991791 842.122864,479.230469 
	C837.683350,481.402008 835.893494,484.641907 836.298218,489.652985 
	C836.771545,495.513672 838.195557,496.655365 843.365234,493.929230 
	C852.204346,489.268005 860.995728,484.514252 869.752563,479.699982 
	C876.054199,476.235504 876.173401,475.536133 871.445557,470.272614 
	C854.971069,451.931793 838.415833,433.663391 821.998596,415.271606 
	C819.656372,412.647614 817.606628,412.614807 814.596558,414.021606 
	C796.342285,422.552917 778.006470,430.909973 758.999573,439.615509 
M177.233765,271.254547 
	C173.244797,267.378723 170.155685,262.577850 165.618759,259.191040 
	C163.498535,261.190063 164.119278,263.304108 164.118027,265.206390 
	C164.087585,311.515625 164.092117,357.824921 164.103638,404.134186 
	C164.107330,418.959778 164.216415,433.785736 164.130081,448.610687 
	C164.105362,452.858185 165.877014,454.384125 169.953339,453.609924 
	C175.127975,452.627136 179.810425,450.797516 183.594666,446.890167 
	C195.530716,434.565765 207.508224,422.280609 219.573624,410.083038 
	C222.580215,407.043518 223.883240,403.738312 223.848160,399.404663 
	C223.649902,374.918518 223.614471,350.430206 223.708984,325.943359 
	C223.723206,322.255798 222.315338,319.645386 219.943619,317.110809 
	C205.832428,302.030670 191.783630,286.892212 177.233765,271.254547 
M660.718323,722.497192 
	C660.718323,702.804199 660.718323,683.111206 660.718323,663.209717 
	C656.647705,663.594299 654.821350,665.720642 652.766541,667.266663 
	C626.031433,687.382996 599.370117,707.597534 572.619080,727.692505 
	C570.037903,729.631409 569.216980,731.888733 569.235779,734.943726 
	C569.329041,750.096619 569.285522,765.250366 569.329407,780.403687 
	C569.347534,786.649963 569.856873,786.943542 575.500122,784.033142 
	C598.875732,771.977234 622.292480,759.999756 645.594116,747.802551 
	C664.177551,738.075012 660.145996,744.434387 660.718323,722.497192 
M242.391769,398.895508 
	C231.610184,409.767151 221.041382,420.860870 209.988403,431.449219 
	C198.447159,442.505280 189.223633,456.397217 173.323853,462.306854 
	C173.137039,462.376312 173.119934,462.902344 172.802795,463.932434 
	C181.244415,470.652496 189.275360,478.384888 199.506989,483.038940 
	C202.697968,484.490417 206.391891,483.869385 209.846497,483.190887 
	C218.589127,481.473785 226.247604,477.354950 232.545486,471.277222 
	C254.221298,450.359009 275.545990,429.081238 296.543060,407.476776 
	C299.045197,404.902283 299.168610,403.048859 296.586731,400.414276 
	C288.782806,392.450928 281.043213,384.412415 273.590820,376.122467 
	C270.390991,372.563080 268.121460,372.879791 265.043335,376.076630 
	C257.771942,383.628326 250.294235,390.981415 242.391769,398.895508 
M772.661987,766.103577 
	C790.844299,755.317566 808.977905,744.447937 827.247253,733.811401 
	C831.201294,731.509277 832.716003,728.646423 832.686890,724.123108 
	C832.537292,700.816406 832.717896,677.509399 832.067810,654.203918 
	C831.941589,649.678406 830.479858,646.879395 826.453674,644.683289 
	C804.975403,632.967712 783.488342,621.255066 762.302185,609.025391 
	C756.565857,605.714050 752.354126,606.017456 746.863770,609.340271 
	C727.072327,621.317871 707.054077,632.927246 686.958679,644.390320 
	C682.796204,646.764771 681.071594,649.534058 681.103638,654.271179 
	C681.268005,678.580017 681.323914,702.891602 681.112793,727.199524 
	C681.067383,732.431458 683.100769,735.373779 687.510376,737.849976 
	C706.088074,748.282288 724.389526,759.209900 743.032471,769.521606 
	C757.856567,777.721008 752.690918,777.803711 766.869385,769.515869 
	C768.593933,768.507812 770.323303,767.508057 772.661987,766.103577 
M714.865784,380.685150 
	C711.432739,380.922394 712.216431,383.677704 712.209778,385.590088 
	C712.153381,401.896057 712.183289,418.202820 712.297668,434.508575 
	C712.333069,439.554871 713.401123,440.175598 717.992554,438.082336 
	C739.481323,428.285339 760.957886,418.461395 782.410522,408.585663 
	C783.766113,407.961639 785.681946,407.793762 786.164856,405.255768 
	C762.592407,397.101654 739.054688,388.959534 714.865784,380.685150 
M585.287476,601.723633 
	C592.623657,597.115723 599.898499,592.405884 607.323792,587.946350 
	C610.657104,585.944397 610.768372,584.190369 608.252380,581.335693 
	C596.575012,568.086914 585.048523,554.705078 573.437317,541.397766 
	C572.509888,540.334839 571.829285,538.816162 569.977295,538.841309 
	C568.851318,540.511108 569.294067,542.396729 569.285889,544.159912 
	C569.233704,555.490601 569.262146,566.821594 569.276306,578.152527 
	C569.287964,587.483887 569.362183,596.815552 569.316162,606.146545 
	C569.296326,610.172180 570.786072,610.963196 574.118896,608.796509 
	C577.610535,606.526550 581.154907,604.337830 585.287476,601.723633 
M402.608521,435.271881 
	C402.608521,420.729706 402.608521,406.187561 402.608521,390.687927 
	C384.202698,398.344818 366.839172,405.568115 348.645782,413.136627 
	C349.870361,413.951538 350.255280,414.289581 350.701569,414.492889 
	C366.757446,421.805725 382.816803,429.110901 398.884094,436.398651 
	C400.109955,436.954651 401.412659,437.494171 402.608521,435.271881 
M527.106445,777.304626 
	C534.291992,781.513611 541.480713,785.717041 548.661926,789.933533 
	C553.631592,792.851562 554.611023,792.357727 554.637573,786.557983 
	C554.696289,773.730286 554.666199,760.902100 554.635254,748.074280 
	C554.631348,746.455444 554.937378,744.684814 553.328674,743.456909 
	C551.190857,743.039551 549.989624,744.673401 548.600586,745.750977 
	C540.835815,751.774414 533.111694,757.850342 525.384521,763.921997 
	C516.595276,770.828247 513.900574,770.171997 527.106445,777.304626 
M788.808044,395.554962 
	C791.963501,396.600067 795.183228,397.485748 798.260376,398.725342 
	C803.718872,400.924225 807.602234,398.046051 811.951904,395.422394 
	C809.957214,392.733765 807.381958,392.298553 805.107971,391.509583 
	C785.644165,384.756683 766.152344,378.084198 746.658020,371.419586 
	C737.066772,368.140594 727.463623,364.895111 717.839111,361.715363 
	C715.899536,361.074585 713.578552,360.757874 712.670898,363.154816 
	C711.747498,365.593475 711.892212,368.188843 714.662109,369.626740 
	C716.275696,370.464386 718.001892,371.112122 719.724976,371.707764 
	C742.500122,379.580414 765.283569,387.428650 788.808044,395.554962 
M868.630798,619.500610 
	C868.233765,612.494324 869.435669,605.384888 867.834656,598.394226 
	C858.712097,599.995117 855.350830,603.725159 855.345459,611.774719 
	C855.336060,625.730896 855.318054,639.687073 855.368835,653.643066 
	C855.375183,655.375671 854.733887,657.340027 856.418762,658.742737 
	C865.157837,657.107056 868.599365,653.197754 868.612061,644.923584 
	C868.624573,636.782532 868.625122,628.641418 868.630798,619.500610 
M333.911163,398.494080 
	C331.033325,399.936829 327.730042,400.618500 324.405518,403.601105 
	C329.543365,404.934052 332.850433,408.913239 338.143036,406.674896 
	C358.220245,398.183807 378.367340,389.857971 398.460724,381.404846 
	C403.616058,379.236023 404.384003,376.917755 401.999390,370.674805 
	C379.535492,379.868378 357.081787,389.057800 333.911163,398.494080 
z"/>
<path fill="#000000" opacity="1.000000" stroke="none" 
	d="
M844.640259,955.474609 
	C848.824707,944.935364 848.812378,944.953918 857.957458,951.050354 
	C861.628479,953.497498 865.855835,954.565430 870.067261,955.579956 
	C879.111938,957.758667 884.518127,963.289490 886.235718,972.500732 
	C887.277100,978.085266 888.826904,983.541565 891.790344,988.471008 
	C894.065857,992.256226 893.971619,996.187866 893.560608,1000.499512 
	C892.716492,1009.353760 886.865967,1012.884094 879.547974,1015.335632 
	C877.305237,1016.086853 874.409424,1015.605774 873.226135,1018.394409 
	C873.461548,1020.716492 875.918823,1020.206787 877.585754,1022.508118 
	C871.653931,1023.245911 866.413391,1023.443665 860.755737,1022.423096 
	C862.081238,1020.016235 865.169556,1021.154053 865.824341,1017.886597 
	C861.085815,1016.151367 857.521790,1012.011047 852.696533,1010.039734 
	C843.438538,1006.257385 838.996094,999.180420 838.266907,989.659363 
	C837.784607,983.361511 838.064514,977.005493 837.997437,970.675598 
	C837.934753,964.753662 841.506531,960.414246 844.640259,955.474609 
z"/>
<path fill="#000000" opacity="1.000000" stroke="none" 
	d="
M732.231079,552.525879 
	C737.100891,558.235229 741.694702,563.695312 747.100830,570.120789 
	C678.754883,616.358398 610.653992,662.430237 541.779114,709.025696 
	C540.248108,703.241516 539.455688,698.353882 537.089111,693.974915 
	C534.671021,689.500793 531.234070,685.965515 527.543945,682.786438 
	C527.816223,680.255188 529.928894,679.863770 531.357605,678.945801 
	C580.243042,647.537231 629.153015,616.166870 678.075928,584.816650 
	C694.053833,574.577881 710.060974,564.384399 726.101929,554.244812 
	C727.831665,553.151428 729.467529,551.311768 732.231079,552.525879 
M719.799133,578.255371 
	C723.508484,575.714233 727.203125,573.151062 730.932495,570.639709 
	C733.381714,568.990417 733.164001,567.397400 731.255676,565.372681 
	C728.084595,562.008301 725.489624,564.392456 722.897705,566.051208 
	C695.405151,583.645874 667.950806,601.300293 640.462219,618.901123 
	C609.048645,639.015259 577.614929,659.097900 546.178345,679.176086 
	C542.781555,681.345581 540.431458,683.391174 543.382507,687.930420 
	C547.880981,694.849854 547.639709,695.008057 554.709167,690.408997 
	C555.826111,689.682312 556.943970,688.956360 558.045898,688.207336 
	C611.766235,651.694580 665.484802,615.179382 719.799133,578.255371 
z"/>
<path fill="#000000" opacity="1.000000" stroke="none" 
	d="
M515.586060,729.767029 
	C507.308258,734.819153 499.313721,735.188782 491.449829,729.838806 
	C484.228485,724.925964 481.763611,717.716125 482.841370,709.423950 
	C483.937103,700.993164 488.743225,695.117432 496.890747,692.307922 
	C506.821930,688.883240 517.288025,692.831848 522.192688,701.721313 
	C527.632935,711.581421 525.285217,721.952881 515.586060,729.767029 
z"/>
<path fill="#000000" opacity="1.000000" stroke="none" 
	d="
M754.170654,617.269531 
	C757.588379,617.666931 760.106628,619.386414 762.712708,620.820740 
	C781.097839,630.939209 799.413330,641.184631 817.836060,651.233826 
	C821.016174,652.968506 822.359131,655.104431 822.342529,658.735718 
	C822.248962,679.228210 822.295593,699.721741 822.396362,720.214417 
	C822.410950,723.180481 821.516724,725.185608 818.865479,726.743408 
	C798.619568,738.639282 778.419434,750.613586 758.252808,762.643616 
	C755.945923,764.019775 754.005737,763.939148 751.757202,762.650208 
	C732.684204,751.716553 713.596985,740.807495 694.470093,729.968567 
	C691.420105,728.240234 691.333008,725.413086 691.308472,722.616882 
	C691.190186,709.123352 691.191956,695.628723 691.152161,682.134521 
	C691.128601,674.137390 691.130615,666.140137 691.070801,658.143311 
	C691.050964,655.496826 691.567139,653.301514 694.124878,651.814453 
	C713.419250,640.596680 732.673035,629.309204 751.948669,618.059265 
	C752.516113,617.728027 753.184692,617.570129 754.170654,617.269531 
M808.624939,706.953003 
	C809.199280,695.889648 805.303406,690.190552 794.786438,686.871704 
	C792.573303,686.173340 790.279785,685.726807 788.018311,685.185181 
	C782.696289,683.910889 777.145752,683.552246 772.092834,681.200317 
	C769.214600,679.860657 766.911194,677.942810 766.841858,674.533569 
	C766.769531,670.980103 768.936218,668.686035 771.907288,667.116638 
	C778.569275,663.597534 788.240479,665.384644 793.325439,671.027283 
	C795.186829,673.092773 802.598694,673.705933 804.170410,671.578796 
	C806.410156,668.547729 803.776978,666.230042 802.087402,664.213501 
	C792.439880,652.698547 768.771484,652.669434 758.887878,664.040222 
	C751.651123,672.365967 754.039795,684.366760 763.941711,689.270264 
	C767.393616,690.979736 771.115845,691.879272 774.846313,692.773193 
	C780.493835,694.126404 786.377563,694.681396 791.675049,697.261597 
	C797.444580,700.071655 798.131958,707.813049 793.055359,711.637268 
	C786.025452,716.932983 772.060608,714.833069 766.840759,707.695496 
	C764.399841,704.357849 758.394775,703.175354 755.648743,705.997742 
	C752.590149,709.141418 755.641968,711.910217 757.354736,714.283752 
	C759.929504,717.851624 763.539612,720.307617 767.747559,721.747986 
	C775.999329,724.572693 784.413757,724.925903 792.827209,722.798706 
	C800.795044,720.784241 806.555664,716.200623 808.624939,706.953003 
M703.821045,716.370605 
	C698.869873,718.431458 698.504089,719.550903 701.346191,723.944824 
	C706.329590,731.649170 716.923584,734.818726 727.723328,731.836548 
	C736.346375,729.455444 741.213867,724.571777 741.721863,715.798706 
	C742.769836,697.700073 742.094543,679.560608 742.030457,661.437622 
	C742.015076,657.090942 739.239685,656.407837 735.662537,656.372375 
	C731.915161,656.335205 730.199585,657.770447 730.253723,661.682861 
	C730.392029,671.663757 730.321838,681.647644 730.307556,691.630371 
	C730.297485,698.617676 730.415955,705.611633 730.146606,712.589905 
	C729.962097,717.370239 728.186646,721.417908 722.898682,722.686157 
	C717.990662,723.863342 713.896362,722.496765 711.320374,718.097290 
	C709.529358,715.038452 707.279236,715.119263 703.821045,716.370605 
z"/>
</svg>